<svg width="52" height="52" viewBox="0 0 52 52" fill="none" xmlns="http://www.w3.org/2000/svg">
<g clip-path="url(#clip0_1_317)">
<path d="M50.0836 31.5031L48.29 30.4675C48.5912 28.9693 48.7436 27.469 48.7436 26C48.7436 24.5096 48.5936 23.0079 48.2975 21.528L50.0836 20.4968C50.6368 20.1774 51.0326 19.6617 51.1978 19.0447C51.3631 18.4277 51.2783 17.7833 50.9589 17.2301L46.0743 8.76978C45.7549 8.21661 45.2393 7.82086 44.6223 7.6556C44.0052 7.49034 43.3609 7.57511 42.8076 7.89454L41.0201 8.9266C38.7621 6.94012 36.1047 5.40271 33.2759 4.44615V2.39139C33.2759 1.07277 32.2032 0 30.8845 0H21.1155C19.7968 0 18.7241 1.07277 18.7241 2.39139V4.44625C15.9104 5.39894 13.2566 6.93839 10.9903 8.9327L9.19229 7.89454C8.63902 7.57511 7.99456 7.49024 7.37758 7.6556C6.7606 7.82096 6.24498 8.21661 5.92555 8.76978L1.04101 17.2301C0.721583 17.7833 0.636816 18.4277 0.802076 19.0447C0.967337 19.6617 1.36309 20.1774 1.91626 20.4968L3.7099 21.5324C3.40889 23.0306 3.25635 24.5309 3.25635 26C3.25635 27.4902 3.40635 28.9919 3.70248 30.4719L1.91636 31.5031C0.774397 32.1625 0.381802 33.6278 1.04101 34.7699L5.92555 43.2302C6.58486 44.3721 8.05023 44.7648 9.19229 44.1055L10.9797 43.0734C13.2378 45.0599 15.8951 46.5973 18.7241 47.5539V49.6086C18.7241 50.9272 19.7968 52 21.1155 52H30.8845C32.2032 52 33.2759 50.9272 33.2759 49.6086V47.5537C36.0897 46.6011 38.7435 45.0616 41.0098 43.0674L42.8077 44.1055C43.9496 44.7648 45.4151 44.3721 46.0744 43.2302L50.959 34.7699C51.6182 33.6278 51.2256 32.1625 50.0836 31.5031ZM49.637 34.0067L44.7525 42.4669C44.514 42.8801 43.984 43.022 43.5709 42.7835L41.2923 41.4679C41.0028 41.3007 40.6379 41.3415 40.3925 41.5686C38.0629 43.7231 35.26 45.3488 32.2869 46.2698C31.9674 46.3688 31.7495 46.6644 31.7495 46.9988V49.6086C31.7495 50.0856 31.3615 50.4736 30.8845 50.4736H21.1155C20.6385 50.4736 20.2505 50.0856 20.2505 49.6086V46.9989C20.2505 46.6645 20.0326 46.3689 19.7132 46.2699C16.7218 45.3432 13.9154 43.7196 11.5972 41.5748C11.4526 41.4409 11.2665 41.3717 11.0787 41.3717C10.9479 41.3717 10.8163 41.4053 10.6973 41.474L8.42908 42.7835C8.01593 43.0219 7.48596 42.88 7.24753 42.4669L2.36299 34.0067C2.12457 33.5936 2.26662 33.0636 2.67957 32.825L4.946 31.5165C5.23541 31.3494 5.38245 31.0136 5.30888 30.6875C4.95974 29.14 4.78277 27.5628 4.78277 26C4.78277 24.4634 4.96238 22.8877 5.31671 21.3167C5.39019 20.9908 5.24314 20.6549 4.95383 20.4879L2.67957 19.1749C2.47951 19.0594 2.33643 18.8728 2.2766 18.6497C2.21686 18.4265 2.24749 18.1934 2.36299 17.9933L7.24753 9.53299C7.36303 9.33293 7.54956 9.18975 7.77282 9.13002C7.99588 9.07018 8.22912 9.10092 8.42918 9.21641L10.7078 10.532C10.9974 10.6993 11.3621 10.6584 11.6076 10.4313C13.9373 8.27675 16.7401 6.65112 19.7132 5.73007C20.0327 5.63106 20.2506 5.33555 20.2506 5.00106V2.39139C20.2506 1.91443 20.6386 1.52642 21.1156 1.52642H30.8846C31.3616 1.52642 31.7496 1.91443 31.7496 2.39139V5.00106C31.7496 5.33555 31.9675 5.63106 32.2869 5.73007C35.2782 6.65671 38.0845 8.28031 40.4029 10.4252C40.6483 10.6524 41.0131 10.6932 41.3027 10.526L43.571 9.21641C43.7712 9.10092 44.0043 9.07018 44.2274 9.13002C44.4505 9.18986 44.6371 9.33293 44.7527 9.53299L49.6372 17.9933C49.7527 18.1934 49.7834 18.4265 49.7236 18.6497C49.6638 18.8728 49.5207 19.0594 49.3206 19.1749L47.0542 20.4834C46.7648 20.6505 46.6177 20.9864 46.6913 21.3124C47.0405 22.8597 47.2174 24.4368 47.2174 26C47.2174 27.5366 47.0378 29.1123 46.6835 30.6832C46.61 31.0091 46.757 31.3449 47.0464 31.512L49.3206 32.825C49.7335 33.0636 49.8755 33.5936 49.637 34.0067Z" fill="#333333"/>
<path d="M26 10.5832C17.4991 10.5832 10.5832 17.4992 10.5832 26C10.5832 34.5009 17.4991 41.4169 26 41.4169C34.5009 41.4169 41.4168 34.5009 41.4168 26C41.4168 17.4992 34.5009 10.5832 26 10.5832ZM26 39.8904C18.3408 39.8904 12.1096 33.6592 12.1096 26C12.1096 18.3409 18.3408 12.1096 26 12.1096C33.6592 12.1096 39.8904 18.3409 39.8904 26C39.8904 33.6592 33.6592 39.8904 26 39.8904Z" fill="#333333"/>
<path d="M28.8493 21.9804H26C25.5785 21.9804 25.2368 22.3221 25.2368 22.7436V29.2563C25.2368 29.6778 25.5785 30.0195 26 30.0195C26.4215 30.0195 26.7632 29.6778 26.7632 29.2563V27.5773H28.8493C30.3924 27.5773 31.6477 26.3219 31.6477 24.7788C31.6477 23.2357 30.3924 21.9804 28.8493 21.9804ZM28.8493 26.0509H26.7632V23.5068H28.8493C29.5508 23.5068 30.1213 24.0774 30.1213 24.7788C30.1213 25.4803 29.5508 26.0509 28.8493 26.0509Z" fill="#333333"/>
<path d="M21.83 22.4757C21.7183 22.1778 21.4336 21.9804 21.1155 21.9804H20.3014C19.9833 21.9804 19.6984 22.1777 19.5868 22.4757L17.1445 28.9884C16.9965 29.383 17.1965 29.8229 17.5912 29.971C17.9858 30.1191 18.4257 29.919 18.5738 29.5244L18.9985 28.3914H22.4182L22.8431 29.5243C22.9579 29.8307 23.2488 30.0198 23.5577 30.0198C23.6468 30.0198 23.7373 30.0041 23.8256 29.971C24.2202 29.823 24.4202 29.383 24.2722 28.9884L21.83 22.4757ZM19.5709 26.8649L20.7084 23.8317L21.8459 26.8649H19.5709Z" fill="#333333"/>
<path d="M33.3268 21.9804C32.9053 21.9804 32.5636 22.3221 32.5636 22.7436V29.2563C32.5636 29.6778 32.9053 30.0195 33.3268 30.0195C33.7483 30.0195 34.09 29.6778 34.09 29.2563V22.7436C34.09 22.3221 33.7483 21.9804 33.3268 21.9804Z" fill="#333333"/>
<path d="M31.4597 8.88377C31.9894 9.05259 32.5174 9.24869 33.0289 9.46645C33.1264 9.50797 33.2278 9.52761 33.3275 9.52761C33.6242 9.52761 33.9065 9.3534 34.0301 9.06317C34.1951 8.67536 34.0146 8.2271 33.6268 8.06205C33.0714 7.82566 32.4983 7.61277 31.9231 7.4295C31.5217 7.30148 31.0922 7.52332 30.9642 7.92487C30.8363 8.32642 31.0581 8.75575 31.4597 8.88377Z" fill="#333333"/>
<path d="M10.2219 34.589C10.02 34.219 9.55629 34.0826 9.18639 34.2845C8.81638 34.4864 8.68002 34.9501 8.88192 35.3201C9.1986 35.9005 9.54916 36.4715 9.92385 37.0171C10.0718 37.2326 10.3106 37.3484 10.5536 37.3484C10.7025 37.3484 10.8529 37.3049 10.985 37.2142C11.3325 36.9756 11.4208 36.5005 11.1821 36.1531C10.8369 35.6502 10.5138 35.124 10.2219 34.589Z" fill="#333333"/>
<path d="M24.4369 43.8938C20.3473 43.5414 16.4653 41.7691 13.5062 38.9033C13.2033 38.61 12.7201 38.6179 12.427 38.9206C12.1338 39.2235 12.1414 39.7066 12.4443 39.9998C15.6548 43.1091 19.8675 45.0321 24.3059 45.4145C24.3282 45.4164 24.3502 45.4174 24.3722 45.4174C24.7641 45.4174 25.0975 45.1173 25.1318 44.7197C25.1679 44.2998 24.8568 43.93 24.4369 43.8938Z" fill="#333333"/>
<path d="M36.9826 9.90006C36.6345 9.66224 36.1596 9.75159 35.9218 10.0995C35.684 10.4475 35.7733 10.9225 36.1213 11.1603C39.667 13.5835 42.2319 17.1894 43.3435 21.3136C43.4353 21.6541 43.7434 21.8784 44.0799 21.8784C44.1457 21.8784 44.2125 21.8698 44.279 21.8519C44.686 21.7422 44.927 21.3234 44.8173 20.9164C43.6112 16.441 40.8287 12.5287 36.9826 9.90006Z" fill="#333333"/>
</g>
<defs>
<clipPath id="clip0_1_317">
<rect width="52" height="52" fill="white"/>
</clipPath>
</defs>
</svg>
