<svg width="30" height="30" viewBox="0 0 30 30" fill="none" xmlns="http://www.w3.org/2000/svg">
<g clip-path="url(#clip0_1_29)">
<path d="M15 0.714279C7.11191 0.714279 0.714294 7.11071 0.714294 15C0.714294 21.3119 4.80715 26.6667 10.4845 28.5559C11.1976 28.6881 11.4286 28.2452 11.4286 27.869V25.2095C7.45477 26.0738 6.62739 23.5238 6.62739 23.5238C5.97739 21.8726 5.04048 21.4333 5.04048 21.4333C3.74406 20.5464 5.13929 20.5655 5.13929 20.5655C6.57382 20.6655 7.32858 22.0381 7.32858 22.0381C8.60239 24.2214 10.6702 23.5905 11.4857 23.225C11.6131 22.3024 11.9833 21.6714 12.3929 21.3155C9.22025 20.9524 5.88453 19.7274 5.88453 14.2548C5.88453 12.694 6.44287 11.4202 7.35596 10.4202C7.20834 10.0595 6.71906 8.60595 7.49525 6.63928C7.49525 6.63928 8.69525 6.25595 11.425 8.10356C12.5643 7.7869 13.7857 7.62856 15 7.62261C16.2143 7.62856 17.4369 7.7869 18.5786 8.10356C21.306 6.25595 22.5036 6.63928 22.5036 6.63928C23.281 8.60714 22.7917 10.0607 22.6441 10.4202C23.5607 11.4202 24.1143 12.6952 24.1143 14.2548C24.1143 19.7417 20.7726 20.95 17.5917 21.3036C18.1036 21.7464 18.5714 22.6155 18.5714 23.9488V27.869C18.5714 28.2488 18.8 28.6952 19.525 28.5548C25.1976 26.6631 29.2857 21.3095 29.2857 15C29.2857 7.11071 22.8893 0.714279 15 0.714279Z" fill="#333333"/>
</g>
<defs>
<clipPath id="clip0_1_29">
<rect width="28.5714" height="28.5714" fill="white" transform="translate(0.714294 0.714279)"/>
</clipPath>
</defs>
</svg>
