<svg width="53" height="53" viewBox="0 0 53 53" fill="none" xmlns="http://www.w3.org/2000/svg">
<g clip-path="url(#clip0_1_328)">
<path d="M4.09687 10.683C4.3012 10.683 4.50241 10.6 4.64658 10.4548C4.79178 10.3106 4.87476 10.1094 4.87476 9.90508C4.87476 9.70076 4.79178 9.49955 4.64658 9.35538C4.50241 9.21017 4.30223 9.1272 4.09687 9.1272C3.89151 9.1272 3.69133 9.21017 3.54717 9.35538C3.40196 9.49955 3.31898 9.70076 3.31898 9.90508C3.31898 10.1094 3.40196 10.3106 3.54717 10.4548C3.69133 10.6 3.89255 10.683 4.09687 10.683Z" fill="#333333"/>
<path d="M6.5861 10.683C6.79146 10.683 6.99164 10.6 7.13581 10.4548C7.28101 10.3106 7.36399 10.1094 7.36399 9.90508C7.36399 9.70076 7.28101 9.49955 7.13581 9.35538C6.99164 9.21017 6.79042 9.1272 6.5861 9.1272C6.38177 9.1272 6.18056 9.21017 6.03639 9.35538C5.89119 9.49955 5.80821 9.70076 5.80821 9.90508C5.80821 10.1094 5.89119 10.3106 6.03639 10.4548C6.18056 10.6 6.38177 10.683 6.5861 10.683Z" fill="#333333"/>
<path d="M9.07534 10.683C9.27967 10.683 9.48088 10.6 9.62505 10.4548C9.77025 10.3106 9.85323 10.1094 9.85323 9.90508C9.85323 9.70076 9.77025 9.49955 9.62505 9.35538C9.48088 9.21017 9.27967 9.1272 9.07534 9.1272C8.87102 9.1272 8.6698 9.21017 8.52563 9.35538C8.38043 9.49955 8.29745 9.70076 8.29745 9.90508C8.29745 10.1094 8.38043 10.3106 8.52563 10.4548C8.6698 10.6 8.87102 10.683 9.07534 10.683Z" fill="#333333"/>
<path d="M12.3943 10.683H43.9247C44.3543 10.683 44.7025 10.3347 44.7025 9.90508C44.7025 9.47548 44.3543 9.1272 43.9247 9.1272H12.3943C11.9647 9.1272 11.6164 9.47548 11.6164 9.90508C11.6164 10.3347 11.9647 10.683 12.3943 10.683Z" fill="#333333"/>
<path d="M47.2436 10.683H48.9031C49.3327 10.683 49.681 10.3347 49.681 9.90508C49.681 9.47548 49.3327 9.1272 48.9031 9.1272H47.2436C46.814 9.1272 46.4658 9.47548 46.4658 9.90508C46.4658 10.3347 46.814 10.683 47.2436 10.683Z" fill="#333333"/>
<path d="M45.5841 17.4247H30.6487C29.3047 17.4247 28.2113 18.5181 28.2113 19.8621V19.9139H27.3297C25.9858 19.9139 24.8924 21.0073 24.8924 22.3513V29.0411H23.1292V26.5C23.1292 25.156 22.0358 24.0626 20.6918 24.0626H7.41585C6.07187 24.0626 4.97847 25.156 4.97847 26.5V33.138C4.97847 34.482 6.07187 35.5754 7.41585 35.5754H20.6918C22.0358 35.5754 23.1292 34.482 23.1292 33.138V30.5969H24.8924V37.2867C24.8924 38.6307 25.9858 39.7241 27.3297 39.7241H28.2113V39.776C28.2113 41.1199 29.3047 42.2133 30.6487 42.2133H45.5841C46.9281 42.2133 48.0215 41.1199 48.0215 39.776V38.1165C48.0215 36.7725 46.9281 35.6791 45.5841 35.6791H30.6487C29.3047 35.6791 28.2113 36.7725 28.2113 38.1165V38.1683H27.3297C26.8436 38.1683 26.4481 37.7728 26.4481 37.2867V30.5969H28.2113V30.6488C28.2113 31.9927 29.3047 33.0861 30.6487 33.0861H45.5841C46.9281 33.0861 48.0215 31.9927 48.0215 30.6488V28.9893C48.0215 27.6453 46.9281 26.5519 45.5841 26.5519H30.6487C29.3047 26.5519 28.2113 27.6453 28.2113 28.9893V29.0411H26.4481V22.3513C26.4481 21.8652 26.8436 21.4697 27.3297 21.4697H28.2113V21.5216C28.2113 22.8655 29.3047 23.9589 30.6487 23.9589H45.5841C46.9281 23.9589 48.0215 22.8655 48.0215 21.5216V19.8621C48.0215 18.5181 46.9281 17.4247 45.5841 17.4247ZM21.5734 33.138C21.5734 33.6241 21.1779 34.0196 20.6918 34.0196H7.41585C6.92972 34.0196 6.53424 33.6241 6.53424 33.138V26.5C6.53424 26.0139 6.92972 25.6184 7.41585 25.6184H20.6918C21.1779 25.6184 21.5734 26.0139 21.5734 26.5V33.138ZM29.7671 38.1165C29.7671 37.6303 30.1626 37.2349 30.6487 37.2349H45.5841C46.0703 37.2349 46.4657 37.6303 46.4657 38.1165V39.776C46.4657 40.2621 46.0703 40.6576 45.5841 40.6576H30.6487C30.1626 40.6576 29.7671 40.2621 29.7671 39.776V38.1165ZM29.7671 28.9893C29.7671 28.5031 30.1626 28.1077 30.6487 28.1077H45.5841C46.0703 28.1077 46.4657 28.5031 46.4657 28.9893V30.6488C46.4657 31.1349 46.0703 31.5304 45.5841 31.5304H30.6487C30.1626 31.5304 29.7671 31.1349 29.7671 30.6488V28.9893ZM46.4657 21.5216C46.4657 22.0077 46.0703 22.4032 45.5841 22.4032H30.6487C30.1626 22.4032 29.7671 22.0077 29.7671 21.5216V19.8621C29.7671 19.3759 30.1626 18.9805 30.6487 18.9805H45.5841C46.0703 18.9805 46.4657 19.3759 46.4657 19.8621V21.5216Z" fill="#333333"/>
<path d="M48.9031 5.80823H4.09687C1.83789 5.80823 0 7.64611 0 9.9051V43.0949C0 45.3539 1.83789 47.1918 4.09687 47.1918H48.9031C51.1621 47.1918 53 45.3539 53 43.0949V9.9051C53 7.64611 51.1621 5.80823 48.9031 5.80823ZM4.09687 7.364H48.9031C50.3043 7.364 51.4442 8.50397 51.4442 9.9051V12.4462H1.55577V9.9051C1.55577 8.50397 2.69574 7.364 4.09687 7.364ZM48.9031 45.636H4.09687C2.69574 45.636 1.55577 44.4961 1.55577 43.0949V14.002H51.4442V43.0949C51.4442 44.4961 50.3043 45.636 48.9031 45.636Z" fill="#333333"/>
</g>
<defs>
<clipPath id="clip0_1_328">
<rect width="53" height="53" fill="white"/>
</clipPath>
</defs>
</svg>
