<svg width="60" height="39" viewBox="0 0 60 39" fill="none" xmlns="http://www.w3.org/2000/svg">
<path d="M27.6715 24.0182C27.413 24.0182 27.1984 23.8332 27.1984 23.6048C27.1984 23.3762 27.4034 23.1913 27.6624 23.1913H27.6715C27.7331 23.1913 27.794 23.2019 27.8509 23.2227C27.9078 23.2435 27.9594 23.2739 28.0029 23.3123C28.0465 23.3507 28.081 23.3963 28.1045 23.4465C28.1281 23.4967 28.1402 23.5505 28.1401 23.6048C28.1401 23.6591 28.128 23.7128 28.1045 23.763C28.0809 23.8132 28.0464 23.8587 28.0029 23.8971C27.9594 23.9355 27.9077 23.966 27.8508 23.9867C27.794 24.0075 27.733 24.0182 27.6715 24.0182ZM2.37061 1.6946C2.11209 1.6946 1.89752 1.50962 1.89752 1.28112C1.89752 1.05271 2.10248 0.867737 2.36147 0.867737H2.37061C2.43214 0.86771 2.49308 0.878384 2.54994 0.899148C2.60679 0.919913 2.65846 0.950361 2.70197 0.988753C2.74548 1.02714 2.77999 1.07273 2.80352 1.12289C2.82706 1.17306 2.83915 1.22682 2.83912 1.28112C2.83917 1.33542 2.82708 1.3892 2.80356 1.43937C2.78003 1.48955 2.74552 1.53515 2.70201 1.57355C2.6585 1.61195 2.60683 1.64241 2.54996 1.66318C2.4931 1.68395 2.43215 1.69463 2.37061 1.6946ZM4.24479 1.6946C3.98627 1.6946 3.7717 1.50962 3.7717 1.28112C3.7717 1.05271 3.97666 0.867737 4.23565 0.867737H4.24479C4.30632 0.86771 4.36726 0.878384 4.42412 0.899148C4.48097 0.919913 4.53263 0.950361 4.57615 0.988753C4.61966 1.02714 4.65417 1.07273 4.6777 1.12289C4.70124 1.17306 4.71333 1.22682 4.7133 1.28112C4.71335 1.33542 4.70126 1.3892 4.67774 1.43937C4.65421 1.48955 4.6197 1.53515 4.57619 1.57355C4.53268 1.61195 4.48101 1.64241 4.42414 1.66318C4.36728 1.68395 4.30633 1.69463 4.24479 1.6946ZM6.11897 1.6946C5.86045 1.6946 5.64588 1.50962 5.64588 1.28112C5.64588 1.05271 5.85084 0.867737 6.10983 0.867737H6.11897C6.1805 0.86771 6.24144 0.878384 6.2983 0.899148C6.35515 0.919913 6.40682 0.950361 6.45033 0.988753C6.49384 1.02714 6.52835 1.07273 6.55188 1.12289C6.57542 1.17306 6.58751 1.22682 6.58748 1.28112C6.58753 1.33542 6.57544 1.3892 6.55192 1.43937C6.52839 1.48955 6.49388 1.53515 6.45037 1.57355C6.40685 1.61195 6.35519 1.64241 6.29832 1.66318C6.24146 1.68395 6.18051 1.69463 6.11897 1.6946Z" fill="#333333"/>
<path d="M59.5041 38.0736H0.468516C0.406976 38.0736 0.346032 38.063 0.289168 38.0422C0.232304 38.0214 0.180637 37.991 0.137122 37.9526C0.0936072 37.9142 0.0590983 37.8686 0.0355696 37.8184C0.0120409 37.7683 -4.60975e-05 37.7145 1.32112e-07 37.6602V2.10796C-4.60975e-05 2.05366 0.0120409 1.99989 0.0355696 1.94972C0.0590983 1.89955 0.0936072 1.85396 0.137122 1.81557C0.180637 1.77717 0.232304 1.74672 0.289168 1.72596C0.346032 1.7052 0.406976 1.69454 0.468516 1.69458H59.5041C59.5656 1.69454 59.6265 1.7052 59.6834 1.72596C59.7403 1.74672 59.7919 1.77717 59.8355 1.81557C59.879 1.85396 59.9135 1.89955 59.937 1.94972C59.9605 1.99989 59.9726 2.05366 59.9726 2.10796V37.6602C59.9726 37.7145 59.9605 37.7683 59.937 37.8184C59.9135 37.8686 59.879 37.9142 59.8355 37.9526C59.7919 37.991 59.7403 38.0214 59.6834 38.0422C59.6265 38.063 59.5656 38.0736 59.5041 38.0736ZM0.937031 37.2468H59.0354V2.52134H0.937031V37.2468Z" fill="#333333"/>
<path d="M59.5041 2.52138H0.468516C0.406976 2.52142 0.346032 2.51076 0.289168 2.49C0.232304 2.46924 0.180637 2.43879 0.137122 2.4004C0.0936072 2.362 0.0590983 2.31642 0.0355696 2.26624C0.0120409 2.21607 -4.60975e-05 2.1623 1.32112e-07 2.108V1.28114C1.32112e-07 0.597272 0.630469 0.0408936 1.40555 0.0408936H58.5669C59.3419 0.0408936 59.9725 0.597272 59.9725 1.28114V2.108C59.9725 2.16229 59.9605 2.21606 59.9369 2.26624C59.9134 2.31641 59.8789 2.36199 59.8354 2.40039C59.7919 2.43879 59.7403 2.46923 59.6834 2.49C59.6265 2.51076 59.5656 2.52142 59.5041 2.52138ZM0.937031 1.69462H59.0354V1.28114C59.0352 1.17157 58.9857 1.06655 58.8979 0.989075C58.8101 0.911598 58.6911 0.867976 58.5669 0.867757H1.40555C1.28134 0.867894 1.16226 0.91149 1.07443 0.988985C0.986598 1.06648 0.937186 1.17154 0.937031 1.28114V1.69462ZM56.6929 13.2697H3.27973C3.21819 13.2697 3.15724 13.2591 3.10038 13.2383C3.04352 13.2175 2.99185 13.1871 2.94833 13.1487C2.90482 13.1103 2.87031 13.0647 2.84678 13.0145C2.82325 12.9644 2.81117 12.9106 2.81121 12.8563V4.58839C2.81118 4.53409 2.82328 4.48033 2.84681 4.43016C2.87035 4.37999 2.90486 4.33441 2.94837 4.29602C2.99188 4.25763 3.04354 4.22718 3.1004 4.20642C3.15725 4.18565 3.21819 4.17498 3.27973 4.17501H56.6927C56.7543 4.17498 56.8152 4.18565 56.8721 4.20642C56.9289 4.22718 56.9806 4.25763 57.0241 4.29602C57.0676 4.33441 57.1021 4.37999 57.1257 4.43016C57.1492 4.48033 57.1613 4.53409 57.1613 4.58839V12.8563C57.1613 12.9106 57.1492 12.9644 57.1257 13.0145C57.1022 13.0647 57.0677 13.1103 57.0242 13.1487C56.9807 13.187 56.929 13.2175 56.8722 13.2383C56.8153 13.259 56.7544 13.2697 56.6929 13.2697ZM3.74836 12.4429H56.2243V5.00177H3.74836V12.4429Z" fill="#333333"/>
<path d="M49.1963 8.30898H10.7763C10.7148 8.30901 10.6539 8.29833 10.597 8.27757C10.5401 8.2568 10.4885 8.22636 10.445 8.18796C10.4015 8.14957 10.367 8.10399 10.3434 8.05383C10.3199 8.00366 10.3078 7.94989 10.3078 7.8956C10.3078 7.8413 10.3199 7.78752 10.3434 7.73734C10.3669 7.68716 10.4014 7.64157 10.4449 7.60317C10.4884 7.56477 10.5401 7.53431 10.597 7.51354C10.6538 7.49277 10.7148 7.48209 10.7763 7.48212H49.1963C49.2578 7.48209 49.3188 7.49277 49.3756 7.51354C49.4325 7.53431 49.4841 7.56477 49.5277 7.60317C49.5712 7.64157 49.6057 7.68716 49.6292 7.73734C49.6527 7.78752 49.6648 7.8413 49.6648 7.8956C49.6648 7.94989 49.6527 8.00366 49.6292 8.05383C49.6056 8.10399 49.5711 8.14957 49.5276 8.18796C49.4841 8.22636 49.4324 8.2568 49.3756 8.27757C49.3187 8.29833 49.2578 8.30901 49.1963 8.30898ZM39.8256 9.9625H20.1471C19.8881 9.9625 19.6785 9.77763 19.6785 9.54912C19.6785 9.32062 19.8881 9.13574 20.1471 9.13574H39.8256C40.0846 9.13574 40.2941 9.32062 40.2941 9.54912C40.2941 9.77763 40.0846 9.9625 39.8256 9.9625ZM56.6929 19.884H3.27973C3.21819 19.8841 3.15725 19.8734 3.10039 19.8527C3.04352 19.8319 2.99186 19.8014 2.94834 19.7631C2.90483 19.7247 2.87032 19.6791 2.84679 19.6289C2.82326 19.5787 2.81117 19.525 2.81122 19.4707V15.3368C2.81117 15.2825 2.82326 15.2287 2.84679 15.1785C2.87032 15.1283 2.90483 15.0828 2.94834 15.0444C2.99186 15.006 3.04352 14.9755 3.10039 14.9548C3.15725 14.934 3.21819 14.9233 3.27973 14.9234H56.6927C56.7543 14.9233 56.8152 14.934 56.8721 14.9548C56.929 14.9755 56.9806 15.006 57.0241 15.0444C57.0677 15.0828 57.1022 15.1283 57.1257 15.1785C57.1492 15.2287 57.1613 15.2825 57.1613 15.3368V19.4707C57.1613 19.5249 57.1492 19.5787 57.1257 19.6289C57.1022 19.679 57.0677 19.7246 57.0242 19.763C56.9807 19.8014 56.929 19.8319 56.8722 19.8526C56.8153 19.8734 56.7544 19.8841 56.6929 19.884ZM3.74837 19.0573H56.2243V15.7501H3.74837V19.0573Z" fill="#333333"/>
<path d="M6.09094 19.0573C5.99314 19.0573 5.89781 19.0303 5.8183 18.98C5.7388 18.9297 5.67911 18.8588 5.64762 18.7771L4.71047 16.3484C4.69059 16.297 4.68239 16.2427 4.68632 16.1885C4.69026 16.1343 4.70626 16.0813 4.73342 16.0326C4.76057 15.9839 4.79834 15.9403 4.84457 15.9045C4.89081 15.8686 4.94459 15.8412 5.00286 15.8237C5.24766 15.7534 5.51391 15.8665 5.59723 16.0821L6.53438 18.5108C6.55426 18.5622 6.56247 18.6165 6.55854 18.6707C6.5546 18.7249 6.5386 18.7779 6.51145 18.8266C6.48429 18.8754 6.44652 18.9189 6.40029 18.9548C6.35405 18.9906 6.30027 19.0181 6.242 19.0356C6.19327 19.0498 6.14228 19.0572 6.09094 19.0573Z" fill="#333333"/>
<path d="M6.09048 19.0573C6.01066 19.0573 5.93218 19.0392 5.86249 19.0048C5.79281 18.9705 5.73421 18.921 5.69227 18.8611C5.65034 18.8012 5.62644 18.7328 5.62285 18.6624C5.61926 18.5921 5.6361 18.5221 5.67177 18.4591L6.60892 16.8055C6.72517 16.602 7.007 16.5172 7.23763 16.6206C7.34878 16.6696 7.4333 16.7556 7.47259 16.8597C7.51189 16.9637 7.50274 17.0772 7.44716 17.1753L6.51013 18.8288C6.47108 18.8975 6.41116 18.9553 6.33705 18.9956C6.26294 19.036 6.17757 19.0573 6.09048 19.0573Z" fill="#333333"/>
<path d="M7.96559 19.0573C7.87852 19.0573 7.79317 19.0359 7.71908 18.9956C7.64499 18.9552 7.58508 18.8975 7.54606 18.8288L6.60891 17.1752C6.58138 17.1266 6.56496 17.0737 6.5606 17.0196C6.55623 16.9654 6.56401 16.911 6.58348 16.8595C6.60295 16.808 6.63373 16.7604 6.67406 16.7193C6.7144 16.6783 6.7635 16.6447 6.81856 16.6205C7.04965 16.5171 7.33149 16.6019 7.44715 16.8053L8.3843 18.459C8.42003 18.522 8.43692 18.592 8.43336 18.6624C8.4298 18.7328 8.40591 18.8012 8.36396 18.8611C8.32201 18.9211 8.26339 18.9705 8.19367 19.0049C8.12395 19.0392 8.04544 19.0573 7.96559 19.0573Z" fill="#333333"/>
<path d="M7.96513 19.0572C7.91615 19.0572 7.86635 19.0508 7.81689 19.0362C7.69906 19.0014 7.60171 18.9268 7.54621 18.8287C7.49071 18.7306 7.48159 18.6171 7.52088 18.513L8.45791 16.0327C8.47729 15.9811 8.50801 15.9334 8.5483 15.8924C8.5886 15.8513 8.63767 15.8177 8.69272 15.7934C8.74776 15.7691 8.8077 15.7546 8.8691 15.7508C8.9305 15.747 8.99215 15.7538 9.05053 15.7711C9.16834 15.8059 9.26567 15.8806 9.32117 15.9786C9.37666 16.0767 9.38579 16.1902 9.34654 16.2942L8.40939 18.7746C8.37826 18.8569 8.31862 18.9284 8.2389 18.9791C8.15918 19.0298 8.06341 19.0572 7.96513 19.0572Z" fill="#333333"/>
<path d="M10.7763 19.0573C10.6785 19.0573 10.5832 19.0303 10.5037 18.98C10.4242 18.9297 10.3645 18.8588 10.333 18.7771L9.39587 16.3484C9.37599 16.297 9.36778 16.2427 9.37172 16.1885C9.37565 16.1343 9.39166 16.0813 9.41881 16.0326C9.44596 15.9839 9.48374 15.9403 9.52997 15.9045C9.5762 15.8686 9.62999 15.8412 9.68825 15.8237C9.93481 15.7534 10.1993 15.8665 10.2826 16.0821L11.2197 18.5108C11.2396 18.5622 11.2478 18.6165 11.2438 18.6707C11.2399 18.7249 11.2239 18.7779 11.1968 18.8266C11.1696 18.8754 11.1318 18.9189 11.0856 18.9548C11.0394 18.9906 10.9856 19.0181 10.9273 19.0356C10.8775 19.0501 10.8263 19.0573 10.7763 19.0573Z" fill="#333333"/>
<path d="M10.7759 19.0573C10.6961 19.0573 10.6176 19.0392 10.5479 19.0048C10.4782 18.9705 10.4196 18.921 10.3777 18.8611C10.3357 18.8012 10.3118 18.7328 10.3082 18.6624C10.3047 18.5921 10.3215 18.5221 10.3572 18.4591L11.2943 16.8055C11.41 16.602 11.6915 16.5172 11.9229 16.6206C12.0341 16.6696 12.1186 16.7556 12.1579 16.8597C12.1972 16.9637 12.1881 17.0772 12.1326 17.1753L11.1954 18.8289C11.1564 18.8976 11.0965 18.9553 11.0224 18.9956C10.9483 19.036 10.8629 19.0573 10.7759 19.0573Z" fill="#333333"/>
<path d="M12.6509 19.0573C12.5638 19.0573 12.4785 19.0359 12.4044 18.9956C12.3303 18.9552 12.2704 18.8975 12.2313 18.8288L11.2943 17.1752C11.2387 17.0771 11.2296 16.9636 11.2689 16.8595C11.3082 16.7555 11.3927 16.6695 11.5038 16.6205C11.7358 16.5171 12.0163 16.6019 12.1326 16.8053L13.0697 18.459C13.1054 18.522 13.1223 18.592 13.1187 18.6624C13.1151 18.7328 13.0912 18.8012 13.0492 18.8611C13.0073 18.921 12.9487 18.9705 12.879 19.0049C12.8092 19.0392 12.7307 19.0573 12.6509 19.0573Z" fill="#333333"/>
<path d="M12.6504 19.0572C12.6015 19.0572 12.5516 19.0508 12.5022 19.0362C12.3844 19.0014 12.287 18.9268 12.2315 18.8287C12.176 18.7306 12.1669 18.6171 12.2061 18.5131L13.1433 16.0327C13.1627 15.9811 13.1934 15.9335 13.2336 15.8924C13.2739 15.8513 13.323 15.8177 13.378 15.7934C13.4331 15.7691 13.493 15.7546 13.5544 15.7508C13.6158 15.747 13.6774 15.7539 13.7358 15.7711C13.8536 15.8059 13.9509 15.8806 14.0064 15.9787C14.0619 16.0767 14.0711 16.1903 14.0318 16.2943L13.0947 18.7747C13.0636 18.8569 13.0039 18.9285 12.9242 18.9792C12.8445 19.0299 12.7487 19.0572 12.6504 19.0572Z" fill="#333333"/>
<path d="M15.4617 19.0573C15.3639 19.0573 15.2686 19.0303 15.1891 18.98C15.1096 18.9297 15.0499 18.8588 15.0184 18.7771L14.0814 16.3484C14.0615 16.297 14.0533 16.2427 14.0572 16.1885C14.0611 16.1343 14.0771 16.0813 14.1043 16.0326C14.1314 15.9838 14.1692 15.9403 14.2155 15.9045C14.2617 15.8686 14.3155 15.8412 14.3738 15.8237C14.6195 15.7534 14.8848 15.8665 14.9681 16.0821L15.9052 18.5108C15.9251 18.5622 15.9333 18.6165 15.9294 18.6707C15.9254 18.7249 15.9094 18.7779 15.8823 18.8266C15.8551 18.8754 15.8174 18.9189 15.7711 18.9548C15.7249 18.9906 15.6711 19.0181 15.6128 19.0356C15.5629 19.0501 15.5115 19.0573 15.4617 19.0573Z" fill="#333333"/>
<path d="M15.4613 19.0573C15.3814 19.0573 15.303 19.0392 15.2333 19.0049C15.1636 18.9705 15.105 18.921 15.063 18.8611C15.0211 18.8012 14.9972 18.7328 14.9937 18.6624C14.9901 18.5921 15.007 18.5221 15.0427 18.4591L15.9797 16.8055C16.0959 16.602 16.3764 16.5172 16.6084 16.6206C16.7196 16.6696 16.8041 16.7556 16.8434 16.8597C16.8827 16.9637 16.8736 17.0772 16.818 17.1753L15.8809 18.8289C15.8418 18.8976 15.7819 18.9553 15.7078 18.9956C15.6337 19.036 15.5483 19.0573 15.4613 19.0573Z" fill="#333333"/>
<path d="M17.3364 19.0573C17.2493 19.0573 17.1639 19.036 17.0898 18.9956C17.0157 18.9552 16.9558 18.8975 16.9167 18.8288L15.9797 17.1752C15.9241 17.0771 15.915 16.9636 15.9543 16.8595C15.9936 16.7555 16.0781 16.6695 16.1892 16.6205C16.4203 16.5171 16.7012 16.6019 16.818 16.8053L17.755 18.459C17.7907 18.522 17.8077 18.592 17.8041 18.6624C17.8006 18.7327 17.7767 18.8012 17.7348 18.8611C17.6928 18.9211 17.6342 18.9706 17.5645 19.0049C17.4948 19.0392 17.4162 19.0573 17.3364 19.0573Z" fill="#333333"/>
<path d="M17.3359 19.0573C17.2855 19.0574 17.2354 19.0503 17.1876 19.0363C17.0697 19.0014 16.9724 18.9268 16.9169 18.8287C16.8614 18.7306 16.8523 18.6171 16.8915 18.5131L17.8287 16.0327C17.848 15.9811 17.8787 15.9335 17.919 15.8924C17.9593 15.8513 18.0083 15.8177 18.0634 15.7934C18.1184 15.7691 18.1784 15.7546 18.2398 15.7508C18.3012 15.747 18.3628 15.7539 18.4212 15.7711C18.539 15.8059 18.6364 15.8806 18.6919 15.9787C18.7474 16.0768 18.7565 16.1903 18.7172 16.2943L17.7802 18.7747C17.749 18.8569 17.6894 18.9284 17.6097 18.9791C17.5299 19.0298 17.4342 19.0572 17.3359 19.0573ZM52.9445 18.2305C52.1694 18.2305 51.539 17.6741 51.539 16.9903C51.539 16.3064 52.1694 15.75 52.9445 15.75C53.7196 15.75 54.3501 16.3063 54.3501 16.9903C54.3501 17.6741 53.7196 18.2305 52.9445 18.2305ZM52.9445 16.5769C52.8203 16.5771 52.7013 16.6207 52.6135 16.6982C52.5256 16.7757 52.4762 16.8808 52.476 16.9904C52.476 17.218 52.6865 17.4037 52.9445 17.4037C53.2026 17.4037 53.413 17.218 53.413 16.9904C53.4128 16.8808 53.3634 16.7757 53.2756 16.6982C53.1878 16.6207 53.0687 16.5771 52.9445 16.5769Z" fill="#333333"/>
<path d="M54.8187 19.0573C54.7571 19.0573 54.6962 19.0467 54.6394 19.0259C54.5825 19.0051 54.5309 18.9746 54.4874 18.9362L53.274 17.8656C53.091 17.7041 53.091 17.4425 53.274 17.281C53.4571 17.1195 53.7536 17.1195 53.9365 17.281L55.15 18.3516C55.2155 18.4094 55.2602 18.4831 55.2783 18.5633C55.2964 18.6435 55.2872 18.7266 55.2517 18.8022C55.2162 18.8777 55.1562 18.9423 55.0791 18.9877C55.002 19.0331 54.9114 19.0573 54.8187 19.0573ZM25.7695 24.0182H3.27973C3.2182 24.0182 3.15726 24.0075 3.1004 23.9868C3.04355 23.966 2.99189 23.9355 2.94837 23.8972C2.90486 23.8588 2.87035 23.8132 2.84682 23.763C2.82328 23.7128 2.81119 23.6591 2.81122 23.6048C2.81117 23.5505 2.82326 23.4967 2.84679 23.4465C2.87031 23.3963 2.90482 23.3508 2.94833 23.3124C2.99185 23.274 3.04351 23.2435 3.10038 23.2227C3.15724 23.202 3.21819 23.1913 3.27973 23.1913H25.7694C25.831 23.1913 25.8919 23.202 25.9488 23.2227C26.0056 23.2435 26.0573 23.274 26.1008 23.3124C26.1443 23.3508 26.1788 23.3963 26.2024 23.4465C26.2259 23.4967 26.238 23.5505 26.2379 23.6048C26.238 23.6591 26.2259 23.7128 26.2024 23.763C26.1789 23.8132 26.1444 23.8588 26.1009 23.8971C26.0574 23.9355 26.0057 23.966 25.9489 23.9868C25.892 24.0075 25.8311 24.0182 25.7695 24.0182ZM56.6929 24.0182H50.1334C50.0719 24.0182 50.0109 24.0075 49.954 23.9868C49.8972 23.966 49.8455 23.9356 49.802 23.8972C49.7584 23.8588 49.7239 23.8132 49.7004 23.763C49.6768 23.7129 49.6647 23.6591 49.6648 23.6048C49.6647 23.5505 49.6768 23.4967 49.7004 23.4465C49.7239 23.3963 49.7584 23.3507 49.8019 23.3123C49.8455 23.2739 49.8971 23.2435 49.954 23.2227C50.0109 23.2019 50.0719 23.1913 50.1334 23.1913H56.6929C56.7544 23.1913 56.8154 23.202 56.8722 23.2227C56.9291 23.2435 56.9807 23.274 57.0243 23.3124C57.0678 23.3508 57.1023 23.3963 57.1258 23.4465C57.1493 23.4967 57.1614 23.5505 57.1614 23.6048C57.1614 23.6591 57.1493 23.7128 57.1257 23.763C57.1022 23.8132 57.0677 23.8587 57.0242 23.8971C56.9807 23.9355 56.929 23.966 56.8722 23.9867C56.8153 24.0075 56.7544 24.0182 56.6929 24.0182ZM44.5109 24.8449C44.4493 24.845 44.3884 24.8343 44.3315 24.8135C44.2747 24.7927 44.223 24.7622 44.1796 24.7237L43.2425 23.897C43.0595 23.7355 43.0595 23.4739 43.2425 23.3125C43.4256 23.1511 43.7221 23.151 43.905 23.3125L44.842 24.1392C44.8856 24.1776 44.9201 24.2232 44.9436 24.2733C44.9672 24.3235 44.9793 24.3772 44.9793 24.4315C44.9793 24.4858 44.9672 24.5395 44.9436 24.5897C44.9201 24.6398 44.8856 24.6854 44.842 24.7237C44.7986 24.7622 44.747 24.7927 44.6902 24.8135C44.6333 24.8343 44.5724 24.845 44.5109 24.8449Z" fill="#333333"/>
<path d="M44.5109 24.8449C44.4493 24.845 44.3884 24.8343 44.3315 24.8135C44.2747 24.7927 44.223 24.7622 44.1796 24.7237C44.1361 24.6854 44.1015 24.6398 44.078 24.5897C44.0544 24.5395 44.0423 24.4858 44.0423 24.4315C44.0423 24.3772 44.0544 24.3235 44.078 24.2733C44.1015 24.2232 44.1361 24.1776 44.1796 24.1392L46.0538 22.4856C46.0972 22.4472 46.1489 22.4168 46.2057 22.396C46.2626 22.3752 46.3235 22.3645 46.385 22.3645C46.4465 22.3645 46.5074 22.3752 46.5643 22.396C46.6211 22.4168 46.6727 22.4472 46.7162 22.4856C46.7597 22.524 46.7943 22.5696 46.8178 22.6197C46.8414 22.6699 46.8535 22.7236 46.8535 22.7779C46.8535 22.8322 46.8414 22.886 46.8178 22.9361C46.7943 22.9863 46.7597 23.0318 46.7162 23.0702L44.842 24.7237C44.7986 24.7622 44.747 24.7927 44.6902 24.8135C44.6333 24.8343 44.5724 24.845 44.5109 24.8449ZM31.3918 24.0182H29.5178C29.4562 24.0182 29.3953 24.0075 29.3385 23.9867C29.2816 23.966 29.2299 23.9355 29.1864 23.8971C29.1429 23.8588 29.1084 23.8132 29.0849 23.763C29.0613 23.7128 29.0492 23.6591 29.0493 23.6048C29.0492 23.5505 29.0613 23.4967 29.0848 23.4465C29.1084 23.3963 29.1429 23.3507 29.1864 23.3123C29.2299 23.2739 29.2816 23.2435 29.3384 23.2227C29.3953 23.2019 29.4562 23.1913 29.5178 23.1913H31.3918C31.4534 23.1913 31.5143 23.2019 31.5712 23.2227C31.6281 23.2435 31.6797 23.2739 31.7232 23.3123C31.7668 23.3507 31.8013 23.3963 31.8248 23.4465C31.8483 23.4967 31.8604 23.5505 31.8604 23.6048C31.8604 23.6591 31.8483 23.7128 31.8247 23.763C31.8012 23.8131 31.7667 23.8587 31.7232 23.8971C31.6797 23.9355 31.628 23.9659 31.5712 23.9867C31.5143 24.0075 31.4534 24.0182 31.3918 24.0182ZM28.6086 33.9396C28.3501 33.9396 28.1356 33.7548 28.1356 33.5262C28.1356 33.2978 28.3405 33.1128 28.5995 33.1128H28.6086C28.6702 33.1128 28.7311 33.1235 28.788 33.1442C28.8449 33.165 28.8965 33.1955 28.94 33.2338C28.9836 33.2722 29.0181 33.3178 29.0416 33.368C29.0652 33.4181 29.0773 33.4719 29.0773 33.5262C29.0773 33.5805 29.0652 33.6343 29.0416 33.6844C29.0181 33.7346 28.9836 33.7802 28.94 33.8186C28.8965 33.857 28.8449 33.8874 28.788 33.9082C28.7311 33.9289 28.6702 33.9396 28.6086 33.9396ZM26.7066 33.9396H3.27973C3.21819 33.9396 3.15725 33.929 3.10039 33.9082C3.04352 33.8874 2.99186 33.857 2.94834 33.8186C2.90483 33.7802 2.87032 33.7346 2.84679 33.6845C2.82326 33.6343 2.81117 33.5805 2.81122 33.5262C2.81119 33.4719 2.82328 33.4182 2.84682 33.368C2.87035 33.3178 2.90486 33.2722 2.94837 33.2338C2.99189 33.1955 3.04355 33.165 3.1004 33.1442C3.15726 33.1235 3.2182 33.1128 3.27973 33.1128H26.7065C26.768 33.1128 26.8289 33.1235 26.8858 33.1442C26.9426 33.165 26.9943 33.1955 27.0378 33.2338C27.0813 33.2722 27.1158 33.3178 27.1394 33.368C27.1629 33.4182 27.175 33.4719 27.175 33.5262C27.175 33.5805 27.163 33.6343 27.1394 33.6844C27.1159 33.7346 27.0814 33.7802 27.0379 33.8186C26.9944 33.857 26.9428 33.8874 26.8859 33.9082C26.829 33.929 26.7681 33.9396 26.7066 33.9396ZM56.6929 33.9396H50.1334C50.0719 33.9396 50.0109 33.929 49.954 33.9082C49.8971 33.8875 49.8455 33.857 49.8019 33.8186C49.7584 33.7802 49.7239 33.7347 49.7004 33.6845C49.6768 33.6343 49.6647 33.5805 49.6648 33.5262C49.6647 33.4719 49.6768 33.4181 49.7004 33.368C49.7239 33.3178 49.7584 33.2722 49.802 33.2338C49.8455 33.1954 49.8972 33.165 49.954 33.1442C50.0109 33.1235 50.0719 33.1128 50.1334 33.1128H56.6929C56.7544 33.1128 56.8153 33.1235 56.8722 33.1442C56.929 33.165 56.9807 33.1955 57.0242 33.2338C57.0677 33.2722 57.1022 33.3178 57.1258 33.368C57.1493 33.4182 57.1614 33.4719 57.1614 33.5262C57.1614 33.5805 57.1493 33.6343 57.1258 33.6844C57.1022 33.7346 57.0677 33.7802 57.0242 33.8186C56.9807 33.857 56.929 33.8874 56.8722 33.9082C56.8153 33.9289 56.7544 33.9396 56.6929 33.9396ZM44.5109 34.7665C44.4493 34.7665 44.3884 34.7558 44.3315 34.735C44.2747 34.7142 44.223 34.6837 44.1796 34.6453L43.2425 33.8185C43.199 33.7801 43.1645 33.7346 43.141 33.6844C43.1174 33.6343 43.1053 33.5805 43.1053 33.5263C43.1053 33.472 43.1174 33.4182 43.141 33.3681C43.1645 33.3179 43.199 33.2724 43.2425 33.234C43.286 33.1956 43.3377 33.1652 43.3945 33.1444C43.4513 33.1236 43.5123 33.1129 43.5738 33.1129C43.6353 33.1129 43.6962 33.1236 43.7531 33.1444C43.8099 33.1652 43.8615 33.1956 43.905 33.234L44.842 34.0608C44.8856 34.0991 44.9201 34.1447 44.9436 34.1948C44.9672 34.245 44.9793 34.2987 44.9793 34.353C44.9793 34.4073 44.9672 34.4611 44.9436 34.5112C44.9201 34.5613 44.8856 34.6069 44.842 34.6453C44.7986 34.6838 44.747 34.7143 44.6902 34.7351C44.6333 34.7559 44.5724 34.7665 44.5109 34.7665Z" fill="#333333"/>
<path d="M44.5109 34.7664C44.4493 34.7665 44.3884 34.7558 44.3315 34.735C44.2747 34.7142 44.223 34.6837 44.1796 34.6452C44.1361 34.6068 44.1015 34.5613 44.078 34.5111C44.0544 34.461 44.0423 34.4072 44.0423 34.353C44.0423 34.2987 44.0544 34.2449 44.078 34.1948C44.1015 34.1446 44.1361 34.0991 44.1796 34.0607L46.0538 32.4072C46.0972 32.3688 46.1489 32.3383 46.2057 32.3176C46.2626 32.2968 46.3235 32.2861 46.385 32.2861C46.4465 32.2861 46.5074 32.2968 46.5643 32.3176C46.6211 32.3383 46.6727 32.3688 46.7162 32.4072C46.7597 32.4456 46.7943 32.4911 46.8178 32.5413C46.8414 32.5914 46.8535 32.6452 46.8535 32.6994C46.8535 32.7537 46.8414 32.8075 46.8178 32.8576C46.7943 32.9078 46.7597 32.9533 46.7162 32.9917L44.842 34.6452C44.7986 34.6837 44.747 34.7142 44.6902 34.735C44.6333 34.7558 44.5724 34.7665 44.5109 34.7664ZM32.329 33.9395H30.4548C30.3933 33.9396 30.3323 33.9289 30.2755 33.9082C30.2186 33.8874 30.1669 33.8569 30.1234 33.8185C30.0799 33.7802 30.0454 33.7346 30.0219 33.6844C29.9983 33.6342 29.9862 33.5805 29.9863 33.5262C29.9863 33.4719 29.9984 33.4181 30.0219 33.3679C30.0454 33.3178 30.0799 33.2722 30.1235 33.2338C30.167 33.1954 30.2186 33.165 30.2755 33.1442C30.3323 33.1234 30.3933 33.1127 30.4548 33.1128H32.329C32.3905 33.1127 32.4515 33.1234 32.5083 33.1442C32.5652 33.165 32.6168 33.1954 32.6604 33.2338C32.7039 33.2722 32.7384 33.3178 32.7619 33.3679C32.7854 33.4181 32.7975 33.4719 32.7975 33.5262C32.7976 33.5805 32.7855 33.6342 32.7619 33.6844C32.7384 33.7346 32.7039 33.7802 32.6604 33.8185C32.6169 33.8569 32.5652 33.8874 32.5083 33.9082C32.4515 33.9289 32.3905 33.9396 32.329 33.9395ZM32.3572 28.9788C32.0984 28.9788 31.8841 28.7939 31.8841 28.5654C31.8841 28.3369 32.0892 28.152 32.3472 28.152H32.3572C32.4815 28.152 32.6007 28.1956 32.6885 28.2731C32.7764 28.3506 32.8258 28.4558 32.8259 28.5654C32.8258 28.675 32.7764 28.7802 32.6885 28.8577C32.6007 28.9352 32.4815 28.9787 32.3572 28.9788ZM30.4548 28.9788H3.27973C3.02075 28.9788 2.81122 28.7939 2.81122 28.5654C2.81122 28.3369 3.02075 28.152 3.27973 28.152H30.4548C30.7138 28.152 30.9233 28.3369 30.9233 28.5654C30.9233 28.7939 30.7138 28.9788 30.4548 28.9788ZM56.6929 28.9788H50.1334C49.8743 28.9788 49.6648 28.7939 49.6648 28.5654C49.6648 28.3369 49.8743 28.152 50.1334 28.152H56.6929C56.9518 28.152 57.1614 28.3369 57.1614 28.5654C57.1614 28.7939 56.9517 28.9788 56.6929 28.9788ZM43.5738 29.8055C43.4811 29.8056 43.3905 29.7814 43.3134 29.7359C43.2364 29.6905 43.1763 29.626 43.1408 29.5504C43.1053 29.4748 43.0961 29.3917 43.1142 29.3115C43.1323 29.2313 43.177 29.1576 43.2425 29.0998L45.1167 27.4463C45.2998 27.2848 45.5963 27.2848 45.7792 27.4463C45.9621 27.6078 45.9622 27.8694 45.7792 28.0308L43.905 29.6844C43.8616 29.7229 43.81 29.7534 43.7531 29.7742C43.6963 29.795 43.6354 29.8056 43.5738 29.8055Z" fill="#333333"/>
<path d="M45.4488 29.8055C45.3873 29.8056 45.3264 29.7949 45.2695 29.7741C45.2127 29.7533 45.1611 29.7229 45.1177 29.6844L43.2435 28.0308C43.0604 27.8693 43.0604 27.6077 43.2435 27.4463C43.4265 27.2849 43.723 27.2848 43.9059 27.4463L45.7801 29.0998C45.8457 29.1576 45.8904 29.2313 45.9085 29.3115C45.9266 29.3917 45.9173 29.4748 45.8819 29.5504C45.8464 29.6259 45.7863 29.6905 45.7092 29.7359C45.6321 29.7813 45.5415 29.8055 45.4488 29.8055ZM36.0773 28.9787H34.2032C33.9442 28.9787 33.7346 28.7939 33.7346 28.5653C33.7346 28.3368 33.9442 28.152 34.2032 28.152H36.0773C36.3363 28.152 36.5459 28.3368 36.5459 28.5653C36.5459 28.7939 36.3363 28.9787 36.0773 28.9787Z" fill="#333333"/>
</svg>
