<svg width="107" height="53" viewBox="0 0 107 53" fill="none" xmlns="http://www.w3.org/2000/svg">
    <path
        d="M7.272 46.24C6.088 46.24 5.072 46.048 4.224 45.664C3.376 45.264 2.72 44.704 2.256 43.984C1.792 43.248 1.56 42.376 1.56 41.368H4.128C4.128 42.168 4.408 42.8 4.968 43.264C5.528 43.712 6.304 43.936 7.296 43.936C8.224 43.936 8.952 43.712 9.48 43.264C10.008 42.816 10.272 42.2 10.272 41.416C10.272 40.76 10.088 40.192 9.72 39.712C9.368 39.232 8.856 38.904 8.184 38.728L5.976 38.08C4.696 37.712 3.704 37.088 3 36.208C2.312 35.312 1.968 34.248 1.968 33.016C1.968 32.056 2.184 31.216 2.616 30.496C3.048 29.776 3.664 29.216 4.464 28.816C5.264 28.416 6.208 28.216 7.296 28.216C8.896 28.216 10.176 28.648 11.136 29.512C12.112 30.376 12.608 31.536 12.624 32.992H10.032C10.032 32.224 9.784 31.624 9.288 31.192C8.808 30.744 8.128 30.52 7.248 30.52C6.4 30.52 5.736 30.728 5.256 31.144C4.776 31.544 4.536 32.112 4.536 32.848C4.536 33.504 4.712 34.072 5.064 34.552C5.432 35.032 5.952 35.368 6.624 35.56L8.856 36.232C10.136 36.584 11.12 37.208 11.808 38.104C12.496 39 12.84 40.072 12.84 41.32C12.84 42.296 12.608 43.16 12.144 43.912C11.68 44.648 11.032 45.224 10.2 45.64C9.368 46.04 8.392 46.24 7.272 46.24ZM17.6066 46V28.48H23.3426C24.4786 28.48 25.4626 28.696 26.2946 29.128C27.1426 29.56 27.7906 30.176 28.2386 30.976C28.7026 31.76 28.9346 32.688 28.9346 33.76C28.9346 34.816 28.7026 35.744 28.2386 36.544C27.7746 37.344 27.1266 37.96 26.2946 38.392C25.4626 38.824 24.4786 39.04 23.3426 39.04H20.1986V46H17.6066ZM20.1986 36.712H23.3426C24.2386 36.712 24.9506 36.448 25.4786 35.92C26.0226 35.376 26.2946 34.656 26.2946 33.76C26.2946 32.848 26.0226 32.128 25.4786 31.6C24.9506 31.072 24.2386 30.808 23.3426 30.808H20.1986V36.712ZM32.2132 46L36.6773 28.48H40.0853L44.5493 46H41.9332L40.8772 41.56H35.9092L34.8532 46H32.2132ZM36.3892 39.424H40.3733L39.1732 34.36C38.9653 33.464 38.7893 32.688 38.6453 32.032C38.5172 31.36 38.4292 30.904 38.3812 30.664C38.3333 30.904 38.2452 31.36 38.1172 32.032C37.9892 32.688 37.8133 33.456 37.5893 34.336L36.3892 39.424ZM54.0679 46.24C52.9799 46.24 52.0279 46.04 51.2119 45.64C50.4119 45.224 49.7879 44.632 49.3399 43.864C48.9079 43.08 48.6919 42.168 48.6919 41.128V33.352C48.6919 32.296 48.9079 31.384 49.3399 30.616C49.7879 29.848 50.4119 29.264 51.2119 28.864C52.0279 28.448 52.9799 28.24 54.0679 28.24C55.1559 28.24 56.0999 28.448 56.8999 28.864C57.6999 29.28 58.3159 29.872 58.7479 30.64C59.1959 31.392 59.4199 32.296 59.4199 33.352H56.8279C56.8279 32.44 56.5879 31.744 56.1079 31.264C55.6279 30.784 54.9479 30.544 54.0679 30.544C53.1879 30.544 52.4999 30.784 52.0039 31.264C51.5239 31.744 51.2839 32.432 51.2839 33.328V41.128C51.2839 42.024 51.5239 42.72 52.0039 43.216C52.4999 43.712 53.1879 43.96 54.0679 43.96C54.9479 43.96 55.6279 43.712 56.1079 43.216C56.5879 42.72 56.8279 42.024 56.8279 41.128V39.16H53.5639V36.88H59.4199V41.128C59.4199 42.168 59.1959 43.072 58.7479 43.84C58.3159 44.608 57.6999 45.2 56.8999 45.616C56.0999 46.032 55.1559 46.24 54.0679 46.24Z"
        fill="#333333" />
    <path d="M4 22.5V2H105V46H65.0249" stroke="url(#paint0_linear_37_11)" stroke-width="3" />
    <defs>
        <linearGradient id="paint0_linear_37_11" x1="1.48948" y1="27.3647" x2="111.079" y2="28.3733"
            gradientUnits="userSpaceOnUse">
            <stop stop-color="#FA00FF" />
            <stop offset="1" stop-color="#0019FF" />
        </linearGradient>
    </defs>
</svg>